<svg xmlns="http://www.w3.org/2000/svg" width="500" height="500">
<line x1="250.0" y1="50.0" x2="326.536686473018" y2="65.22409349774264" stroke="black" stroke-width="1"/>
<line x1="250.0" y1="50.0" x2="391.4213562373095" y2="108.57864376269052" stroke="black" stroke-width="1"/>
<line x1="250.0" y1="50.0" x2="434.7759065022574" y2="173.46331352698206" stroke="black" stroke-width="1"/>
<line x1="250.0" y1="50.0" x2="450.0" y2="250.0" stroke="black" stroke-width="1"/>
<line x1="250.0" y1="50.0" x2="434.7759065022574" y2="326.53668647301794" stroke="black" stroke-width="1"/>
<line x1="250.0" y1="50.0" x2="391.4213562373095" y2="391.4213562373095" stroke="black" stroke-width="1"/>
<line x1="250.0" y1="50.0" x2="326.536686473018" y2="434.7759065022574" stroke="black" stroke-width="1"/>
<line x1="250.0" y1="50.0" x2="250.0" y2="450.0" stroke="black" stroke-width="1"/>
<line x1="250.0" y1="50.0" x2="173.46331352698206" y2="434.7759065022574" stroke="black" stroke-width="1"/>
<line x1="250.0" y1="50.0" x2="108.57864376269052" y2="391.4213562373095" stroke="black" stroke-width="1"/>
<line x1="250.0" y1="50.0" x2="65.2240934977427" y2="326.53668647301805" stroke="black" stroke-width="1"/>
<line x1="250.0" y1="50.0" x2="50.0" y2="250.00000000000003" stroke="black" stroke-width="1"/>
<line x1="250.0" y1="50.0" x2="65.22409349774267" y2="173.463313526982" stroke="black" stroke-width="1"/>
<line x1="250.0" y1="50.0" x2="108.57864376269046" y2="108.57864376269052" stroke="black" stroke-width="1"/>
<line x1="250.0" y1="50.0" x2="173.46331352698195" y2="65.2240934977427" stroke="black" stroke-width="1"/>
<line x1="326.536686473018" y1="65.22409349774264" x2="391.4213562373095" y2="108.57864376269052" stroke="black" stroke-width="1"/>
<line x1="326.536686473018" y1="65.22409349774264" x2="434.7759065022574" y2="173.46331352698206" stroke="black" stroke-width="1"/>
<line x1="326.536686473018" y1="65.22409349774264" x2="450.0" y2="250.0" stroke="black" stroke-width="1"/>
<line x1="326.536686473018" y1="65.22409349774264" x2="434.7759065022574" y2="326.53668647301794" stroke="black" stroke-width="1"/>
<line x1="326.536686473018" y1="65.22409349774264" x2="391.4213562373095" y2="391.4213562373095" stroke="black" stroke-width="1"/>
<line x1="326.536686473018" y1="65.22409349774264" x2="326.536686473018" y2="434.7759065022574" stroke="black" stroke-width="1"/>
<line x1="326.536686473018" y1="65.22409349774264" x2="250.0" y2="450.0" stroke="black" stroke-width="1"/>
<line x1="326.536686473018" y1="65.22409349774264" x2="173.46331352698206" y2="434.7759065022574" stroke="black" stroke-width="1"/>
<line x1="326.536686473018" y1="65.22409349774264" x2="108.57864376269052" y2="391.4213562373095" stroke="black" stroke-width="1"/>
<line x1="326.536686473018" y1="65.22409349774264" x2="65.2240934977427" y2="326.53668647301805" stroke="black" stroke-width="1"/>
<line x1="326.536686473018" y1="65.22409349774264" x2="50.0" y2="250.00000000000003" stroke="black" stroke-width="1"/>
<line x1="326.536686473018" y1="65.22409349774264" x2="65.22409349774267" y2="173.463313526982" stroke="black" stroke-width="1"/>
<line x1="326.536686473018" y1="65.22409349774264" x2="108.57864376269046" y2="108.57864376269052" stroke="black" stroke-width="1"/>
<line x1="326.536686473018" y1="65.22409349774264" x2="173.46331352698195" y2="65.2240934977427" stroke="black" stroke-width="1"/>
<line x1="391.4213562373095" y1="108.57864376269052" x2="434.7759065022574" y2="173.46331352698206" stroke="black" stroke-width="1"/>
<line x1="391.4213562373095" y1="108.57864376269052" x2="450.0" y2="250.0" stroke="black" stroke-width="1"/>
<line x1="391.4213562373095" y1="108.57864376269052" x2="434.7759065022574" y2="326.53668647301794" stroke="black" stroke-width="1"/>
<line x1="391.4213562373095" y1="108.57864376269052" x2="391.4213562373095" y2="391.4213562373095" stroke="black" stroke-width="1"/>
<line x1="391.4213562373095" y1="108.57864376269052" x2="326.536686473018" y2="434.7759065022574" stroke="black" stroke-width="1"/>
<line x1="391.4213562373095" y1="108.57864376269052" x2="250.0" y2="450.0" stroke="black" stroke-width="1"/>
<line x1="391.4213562373095" y1="108.57864376269052" x2="173.46331352698206" y2="434.7759065022574" stroke="black" stroke-width="1"/>
<line x1="391.4213562373095" y1="108.57864376269052" x2="108.57864376269052" y2="391.4213562373095" stroke="black" stroke-width="1"/>
<line x1="391.4213562373095" y1="108.57864376269052" x2="65.2240934977427" y2="326.53668647301805" stroke="black" stroke-width="1"/>
<line x1="391.4213562373095" y1="108.57864376269052" x2="50.0" y2="250.00000000000003" stroke="black" stroke-width="1"/>
<line x1="391.4213562373095" y1="108.57864376269052" x2="65.22409349774267" y2="173.463313526982" stroke="black" stroke-width="1"/>
<line x1="391.4213562373095" y1="108.57864376269052" x2="108.57864376269046" y2="108.57864376269052" stroke="black" stroke-width="1"/>
<line x1="391.4213562373095" y1="108.57864376269052" x2="173.46331352698195" y2="65.2240934977427" stroke="black" stroke-width="1"/>
<line x1="434.7759065022574" y1="173.46331352698206" x2="450.0" y2="250.0" stroke="black" stroke-width="1"/>
<line x1="434.7759065022574" y1="173.46331352698206" x2="434.7759065022574" y2="326.53668647301794" stroke="black" stroke-width="1"/>
<line x1="434.7759065022574" y1="173.46331352698206" x2="391.4213562373095" y2="391.4213562373095" stroke="black" stroke-width="1"/>
<line x1="434.7759065022574" y1="173.46331352698206" x2="326.536686473018" y2="434.7759065022574" stroke="black" stroke-width="1"/>
<line x1="434.7759065022574" y1="173.46331352698206" x2="250.0" y2="450.0" stroke="black" stroke-width="1"/>
<line x1="434.7759065022574" y1="173.46331352698206" x2="173.46331352698206" y2="434.7759065022574" stroke="black" stroke-width="1"/>
<line x1="434.7759065022574" y1="173.46331352698206" x2="108.57864376269052" y2="391.4213562373095" stroke="black" stroke-width="1"/>
<line x1="434.7759065022574" y1="173.46331352698206" x2="65.2240934977427" y2="326.53668647301805" stroke="black" stroke-width="1"/>
<line x1="434.7759065022574" y1="173.46331352698206" x2="50.0" y2="250.00000000000003" stroke="black" stroke-width="1"/>
<line x1="434.7759065022574" y1="173.46331352698206" x2="65.22409349774267" y2="173.463313526982" stroke="black" stroke-width="1"/>
<line x1="434.7759065022574" y1="173.46331352698206" x2="108.57864376269046" y2="108.57864376269052" stroke="black" stroke-width="1"/>
<line x1="434.7759065022574" y1="173.46331352698206" x2="173.46331352698195" y2="65.2240934977427" stroke="black" stroke-width="1"/>
<line x1="450.0" y1="250.0" x2="434.7759065022574" y2="326.53668647301794" stroke="black" stroke-width="1"/>
<line x1="450.0" y1="250.0" x2="391.4213562373095" y2="391.4213562373095" stroke="black" stroke-width="1"/>
<line x1="450.0" y1="250.0" x2="326.536686473018" y2="434.7759065022574" stroke="black" stroke-width="1"/>
<line x1="450.0" y1="250.0" x2="250.0" y2="450.0" stroke="black" stroke-width="1"/>
<line x1="450.0" y1="250.0" x2="173.46331352698206" y2="434.7759065022574" stroke="black" stroke-width="1"/>
<line x1="450.0" y1="250.0" x2="108.57864376269052" y2="391.4213562373095" stroke="black" stroke-width="1"/>
<line x1="450.0" y1="250.0" x2="65.2240934977427" y2="326.53668647301805" stroke="black" stroke-width="1"/>
<line x1="450.0" y1="250.0" x2="50.0" y2="250.00000000000003" stroke="black" stroke-width="1"/>
<line x1="450.0" y1="250.0" x2="65.22409349774267" y2="173.463313526982" stroke="black" stroke-width="1"/>
<line x1="450.0" y1="250.0" x2="108.57864376269046" y2="108.57864376269052" stroke="black" stroke-width="1"/>
<line x1="450.0" y1="250.0" x2="173.46331352698195" y2="65.2240934977427" stroke="black" stroke-width="1"/>
<line x1="434.7759065022574" y1="326.53668647301794" x2="391.4213562373095" y2="391.4213562373095" stroke="black" stroke-width="1"/>
<line x1="434.7759065022574" y1="326.53668647301794" x2="326.536686473018" y2="434.7759065022574" stroke="black" stroke-width="1"/>
<line x1="434.7759065022574" y1="326.53668647301794" x2="250.0" y2="450.0" stroke="black" stroke-width="1"/>
<line x1="434.7759065022574" y1="326.53668647301794" x2="173.46331352698206" y2="434.7759065022574" stroke="black" stroke-width="1"/>
<line x1="434.7759065022574" y1="326.53668647301794" x2="108.57864376269052" y2="391.4213562373095" stroke="black" stroke-width="1"/>
<line x1="434.7759065022574" y1="326.53668647301794" x2="65.2240934977427" y2="326.53668647301805" stroke="black" stroke-width="1"/>
<line x1="434.7759065022574" y1="326.53668647301794" x2="50.0" y2="250.00000000000003" stroke="black" stroke-width="1"/>
<line x1="434.7759065022574" y1="326.53668647301794" x2="65.22409349774267" y2="173.463313526982" stroke="black" stroke-width="1"/>
<line x1="434.7759065022574" y1="326.53668647301794" x2="108.57864376269046" y2="108.57864376269052" stroke="black" stroke-width="1"/>
<line x1="434.7759065022574" y1="326.53668647301794" x2="173.46331352698195" y2="65.2240934977427" stroke="black" stroke-width="1"/>
<line x1="391.4213562373095" y1="391.4213562373095" x2="326.536686473018" y2="434.7759065022574" stroke="black" stroke-width="1"/>
<line x1="391.4213562373095" y1="391.4213562373095" x2="250.0" y2="450.0" stroke="black" stroke-width="1"/>
<line x1="391.4213562373095" y1="391.4213562373095" x2="173.46331352698206" y2="434.7759065022574" stroke="black" stroke-width="1"/>
<line x1="391.4213562373095" y1="391.4213562373095" x2="108.57864376269052" y2="391.4213562373095" stroke="black" stroke-width="1"/>
<line x1="391.4213562373095" y1="391.4213562373095" x2="65.2240934977427" y2="326.53668647301805" stroke="black" stroke-width="1"/>
<line x1="391.4213562373095" y1="391.4213562373095" x2="50.0" y2="250.00000000000003" stroke="black" stroke-width="1"/>
<line x1="391.4213562373095" y1="391.4213562373095" x2="65.22409349774267" y2="173.463313526982" stroke="black" stroke-width="1"/>
<line x1="391.4213562373095" y1="391.4213562373095" x2="108.57864376269046" y2="108.57864376269052" stroke="black" stroke-width="1"/>
<line x1="391.4213562373095" y1="391.4213562373095" x2="173.46331352698195" y2="65.2240934977427" stroke="black" stroke-width="1"/>
<line x1="326.536686473018" y1="434.7759065022574" x2="250.0" y2="450.0" stroke="black" stroke-width="1"/>
<line x1="326.536686473018" y1="434.7759065022574" x2="173.46331352698206" y2="434.7759065022574" stroke="black" stroke-width="1"/>
<line x1="326.536686473018" y1="434.7759065022574" x2="108.57864376269052" y2="391.4213562373095" stroke="black" stroke-width="1"/>
<line x1="326.536686473018" y1="434.7759065022574" x2="65.2240934977427" y2="326.53668647301805" stroke="black" stroke-width="1"/>
<line x1="326.536686473018" y1="434.7759065022574" x2="50.0" y2="250.00000000000003" stroke="black" stroke-width="1"/>
<line x1="326.536686473018" y1="434.7759065022574" x2="65.22409349774267" y2="173.463313526982" stroke="black" stroke-width="1"/>
<line x1="326.536686473018" y1="434.7759065022574" x2="108.57864376269046" y2="108.57864376269052" stroke="black" stroke-width="1"/>
<line x1="326.536686473018" y1="434.7759065022574" x2="173.46331352698195" y2="65.2240934977427" stroke="black" stroke-width="1"/>
<line x1="250.0" y1="450.0" x2="173.46331352698206" y2="434.7759065022574" stroke="black" stroke-width="1"/>
<line x1="250.0" y1="450.0" x2="108.57864376269052" y2="391.4213562373095" stroke="black" stroke-width="1"/>
<line x1="250.0" y1="450.0" x2="65.2240934977427" y2="326.53668647301805" stroke="black" stroke-width="1"/>
<line x1="250.0" y1="450.0" x2="50.0" y2="250.00000000000003" stroke="black" stroke-width="1"/>
<line x1="250.0" y1="450.0" x2="65.22409349774267" y2="173.463313526982" stroke="black" stroke-width="1"/>
<line x1="250.0" y1="450.0" x2="108.57864376269046" y2="108.57864376269052" stroke="black" stroke-width="1"/>
<line x1="250.0" y1="450.0" x2="173.46331352698195" y2="65.2240934977427" stroke="black" stroke-width="1"/>
<line x1="173.46331352698206" y1="434.7759065022574" x2="108.57864376269052" y2="391.4213562373095" stroke="black" stroke-width="1"/>
<line x1="173.46331352698206" y1="434.7759065022574" x2="65.2240934977427" y2="326.53668647301805" stroke="black" stroke-width="1"/>
<line x1="173.46331352698206" y1="434.7759065022574" x2="50.0" y2="250.00000000000003" stroke="black" stroke-width="1"/>
<line x1="173.46331352698206" y1="434.7759065022574" x2="65.22409349774267" y2="173.463313526982" stroke="black" stroke-width="1"/>
<line x1="173.46331352698206" y1="434.7759065022574" x2="108.57864376269046" y2="108.57864376269052" stroke="black" stroke-width="1"/>
<line x1="173.46331352698206" y1="434.7759065022574" x2="173.46331352698195" y2="65.2240934977427" stroke="black" stroke-width="1"/>
<line x1="108.57864376269052" y1="391.4213562373095" x2="65.2240934977427" y2="326.53668647301805" stroke="black" stroke-width="1"/>
<line x1="108.57864376269052" y1="391.4213562373095" x2="50.0" y2="250.00000000000003" stroke="black" stroke-width="1"/>
<line x1="108.57864376269052" y1="391.4213562373095" x2="65.22409349774267" y2="173.463313526982" stroke="black" stroke-width="1"/>
<line x1="108.57864376269052" y1="391.4213562373095" x2="108.57864376269046" y2="108.57864376269052" stroke="black" stroke-width="1"/>
<line x1="108.57864376269052" y1="391.4213562373095" x2="173.46331352698195" y2="65.2240934977427" stroke="black" stroke-width="1"/>
<line x1="65.2240934977427" y1="326.53668647301805" x2="50.0" y2="250.00000000000003" stroke="black" stroke-width="1"/>
<line x1="65.2240934977427" y1="326.53668647301805" x2="65.22409349774267" y2="173.463313526982" stroke="black" stroke-width="1"/>
<line x1="65.2240934977427" y1="326.53668647301805" x2="108.57864376269046" y2="108.57864376269052" stroke="black" stroke-width="1"/>
<line x1="65.2240934977427" y1="326.53668647301805" x2="173.46331352698195" y2="65.2240934977427" stroke="black" stroke-width="1"/>
<line x1="50.0" y1="250.00000000000003" x2="65.22409349774267" y2="173.463313526982" stroke="black" stroke-width="1"/>
<line x1="50.0" y1="250.00000000000003" x2="108.57864376269046" y2="108.57864376269052" stroke="black" stroke-width="1"/>
<line x1="50.0" y1="250.00000000000003" x2="173.46331352698195" y2="65.2240934977427" stroke="black" stroke-width="1"/>
<line x1="65.22409349774267" y1="173.463313526982" x2="108.57864376269046" y2="108.57864376269052" stroke="black" stroke-width="1"/>
<line x1="65.22409349774267" y1="173.463313526982" x2="173.46331352698195" y2="65.2240934977427" stroke="black" stroke-width="1"/>
<line x1="108.57864376269046" y1="108.57864376269052" x2="173.46331352698195" y2="65.2240934977427" stroke="black" stroke-width="1"/>
<circle cx="250.0" cy="50.0" r="3" fill="black"/>
<circle cx="326.536686473018" cy="65.22409349774264" r="3" fill="black"/>
<circle cx="391.4213562373095" cy="108.57864376269052" r="3" fill="black"/>
<circle cx="434.7759065022574" cy="173.46331352698206" r="3" fill="black"/>
<circle cx="450.0" cy="250.0" r="3" fill="black"/>
<circle cx="434.7759065022574" cy="326.53668647301794" r="3" fill="black"/>
<circle cx="391.4213562373095" cy="391.4213562373095" r="3" fill="black"/>
<circle cx="326.536686473018" cy="434.7759065022574" r="3" fill="black"/>
<circle cx="250.0" cy="450.0" r="3" fill="black"/>
<circle cx="173.46331352698206" cy="434.7759065022574" r="3" fill="black"/>
<circle cx="108.57864376269052" cy="391.4213562373095" r="3" fill="black"/>
<circle cx="65.2240934977427" cy="326.53668647301805" r="3" fill="black"/>
<circle cx="50.0" cy="250.00000000000003" r="3" fill="black"/>
<circle cx="65.22409349774267" cy="173.463313526982" r="3" fill="black"/>
<circle cx="108.57864376269046" cy="108.57864376269052" r="3" fill="black"/>
<circle cx="173.46331352698195" cy="65.2240934977427" r="3" fill="black"/>
</svg>